<svg width="43" height="43" viewBox="0 0 43 43" fill="none" xmlns="http://www.w3.org/2000/svg">
<path d="M21.5 39.4166C31.3951 39.4166 39.4167 31.395 39.4167 21.4999C39.4167 11.6048 31.3951 3.58325 21.5 3.58325C11.6049 3.58325 3.58337 11.6048 3.58337 21.4999C3.58337 31.395 11.6049 39.4166 21.5 39.4166Z" stroke="#1E1E1E" stroke-width="3.58333" stroke-linecap="round" stroke-linejoin="round"/>
<path d="M16.2863 16.1249C16.7075 14.9275 17.5389 13.9178 18.6333 13.2746C19.7276 12.6315 21.0143 12.3964 22.2654 12.6109C23.5164 12.8255 24.6512 13.476 25.4687 14.4471C26.2862 15.4182 26.7336 16.6472 26.7317 17.9166C26.7317 21.4999 21.3567 23.2916 21.3567 23.2916" stroke="#1E1E1E" stroke-width="3.58333" stroke-linecap="round" stroke-linejoin="round"/>
<path d="M21.5 30.4583H21.5171" stroke="#1E1E1E" stroke-width="3.58333" stroke-linecap="round" stroke-linejoin="round"/>
</svg>
