<svg width="19" height="18" viewBox="0 0 19 18" fill="none" xmlns="http://www.w3.org/2000/svg">
<path fill-rule="evenodd" clip-rule="evenodd" d="M12.6452 10.27L18.8065 16L17.2043 17.49L11.043 11.76C9.89248 12.53 8.50538 13 6.98925 13C3.12903 13 0 10.09 0 6.5C0 2.91 3.12903 0 6.98925 0C10.8495 0 13.9785 2.91 13.9785 6.5C13.9785 7.91 13.4731 9.2 12.6452 10.27ZM6.98925 2C4.31183 2 2.15054 4.01 2.15054 6.5C2.15054 8.99 4.31183 11 6.98925 11C9.66667 11 11.828 8.99 11.828 6.5C11.828 4.01 9.66667 2 6.98925 2Z" fill="#1E1E1E"/>
</svg>
