<svg width="10" height="20" viewBox="0 0 10 20" fill="none" xmlns="http://www.w3.org/2000/svg">
<g clip-path="url(#clip0_703_3716)">
<path d="M7.25056 1.07037C7.18739 0.936406 7.1242 0.802386 7.06374 0.667922C6.93986 0.392798 6.70847 0.19826 6.33563 0.0556744C6.28286 0.0307177 6.22524 0.0172515 6.16672 0.0161824C6.10821 0.0151134 6.05017 0.0264483 5.9965 0.0494603C5.94999 0.0754341 5.90976 0.11107 5.87858 0.153872C5.84741 0.196676 5.82601 0.24562 5.8159 0.297368C5.77255 0.469595 5.7507 0.646395 5.75072 0.823846C5.74418 1.25185 5.74101 1.67994 5.73795 2.10794C5.7326 2.8259 5.72729 3.56841 5.7047 4.29758C5.67269 5.33579 5.6311 6.39069 5.59094 7.41123C5.54925 8.47033 5.50596 9.56563 5.47336 10.6431C5.41842 12.4576 5.37768 14.3027 5.33828 16.0872L5.30578 17.5496C5.29585 17.9947 5.29616 18.458 5.30694 18.9267C5.29876 19.0989 5.33469 19.2703 5.41134 19.4252C5.45931 19.5038 5.63292 19.7638 5.8547 19.8104C5.88292 19.8163 5.91167 19.8193 5.94053 19.8194C6.17182 19.8194 6.33112 19.6132 6.38572 19.4002C6.43097 19.2137 6.45354 19.0226 6.45296 18.8309C6.45862 18.0422 6.46245 17.2535 6.46432 16.4648C6.46597 15.9801 6.46781 15.4955 6.46996 15.0108C6.47047 14.9108 6.47716 14.8117 6.4848 14.697C6.48692 14.6651 6.48906 14.6324 6.49118 14.5985C6.71602 14.5985 6.93854 14.5996 7.15869 14.6018C7.73709 14.6054 8.2832 14.6091 8.83985 14.5926C9.48303 14.5735 9.71857 14.3359 9.73988 13.6844C9.74115 13.5801 9.73589 13.4756 9.72392 13.372L9.71645 13.2894C9.70388 13.1407 9.69021 12.9923 9.67645 12.8438C9.65098 12.5702 9.62491 12.2872 9.60785 12.0091L9.58951 11.7063C9.5046 10.2982 9.41604 8.84216 9.08855 7.43952C8.72955 5.90356 8.3082 4.28061 7.76283 2.33222C7.62756 1.89844 7.45622 1.47636 7.25056 1.07037ZM8.67699 13.4859H6.53513C6.51501 12.1369 6.55626 10.7298 6.59617 9.36838C6.61374 8.76839 6.63193 8.14811 6.64492 7.53674C6.67447 6.13254 6.70311 4.72836 6.73091 3.3241L6.7572 2.01694C7.7648 5.3865 8.73312 9.33472 8.67682 13.4859H8.67699Z" fill="#1E1E1E"/>
<path d="M0.896336 3.33818C0.847429 2.91118 0.825604 2.47324 0.804461 2.04934C0.794782 1.853 0.785017 1.65664 0.77262 1.46047C0.76747 1.37775 0.762533 1.29504 0.757778 1.21232C0.74207 0.941547 0.725746 0.661705 0.695009 0.386832C0.683398 0.323981 0.655005 0.265278 0.612753 0.216845C0.570503 0.168413 0.515917 0.132001 0.454628 0.111288C0.347982 0.0905244 0.246276 0.201578 0.163914 0.291332C0.115875 0.353183 0.0894902 0.428712 0.0888729 0.506617C0.0803821 0.78375 0.0709406 1.06086 0.061261 1.33799C0.0346846 2.09153 0.00713565 2.87018 0.013334 3.63686C0.0178692 3.90956 0.0833882 4.17792 0.205208 4.42278C0.327028 4.66764 0.502129 4.88298 0.718061 5.05342C0.935844 5.22062 1.1699 5.36612 1.41673 5.48791C1.51862 5.54275 1.62378 5.59907 1.73008 5.66011C1.71981 5.95114 1.70733 6.24452 1.69476 6.53924C1.66572 7.22119 1.63536 7.92624 1.63315 8.62535C1.62398 11.1304 1.62549 13.6775 1.62702 16.1405C1.62758 17.0706 1.62803 18.0007 1.62826 18.9307C1.62826 18.9622 1.62819 18.9938 1.6276 19.0254C1.62666 19.1229 1.62567 19.2235 1.63373 19.3238C1.66209 19.6747 1.8626 19.9068 2.13473 19.9068C2.14008 19.9068 2.1453 19.9068 2.15065 19.9068C2.43416 19.8975 2.62004 19.6562 2.62437 19.2919C2.62666 19.0917 2.62077 18.889 2.61516 18.693C2.61024 18.5231 2.60512 18.3476 2.60546 18.1754C2.61015 15.9689 2.6161 13.7625 2.62329 11.5561L2.62834 9.80338C2.62919 9.51804 2.62985 9.2327 2.63025 8.94736C2.63152 8.18661 2.63297 7.40018 2.64069 6.62681C2.64324 6.37613 2.66021 6.12019 2.6766 5.87262C2.68297 5.776 2.68932 5.67939 2.69492 5.58268C3.56286 5.27423 4.08052 4.65407 4.36972 3.58061C4.64745 2.54944 4.65846 1.52629 4.63298 0.661395L4.63224 0.630161C4.63054 0.538816 4.62844 0.424904 4.5606 0.356416C4.43944 0.234092 4.29742 0.102899 4.14152 0.0945265C3.9937 0.0861539 3.82513 0.261959 3.76068 0.391902C3.71854 0.494643 3.69931 0.605134 3.70429 0.71585C3.70311 0.758467 3.70208 0.801067 3.69766 0.842098C3.67533 1.05568 3.65591 1.26977 3.63655 1.48394C3.59096 1.9863 3.54388 2.5054 3.45786 3.00826C3.40208 3.33362 3.2609 3.65605 3.12428 3.96785C3.09737 4.02939 3.0705 4.09086 3.04426 4.15206C3.01807 4.21872 2.97825 4.27939 2.92726 4.33022C2.87628 4.38105 2.81522 4.42098 2.74791 4.44756C2.74757 4.39983 2.74723 4.353 2.74683 4.307C2.7453 4.13712 2.7438 3.97664 2.74932 3.81773C2.75458 3.66652 2.7607 3.51531 2.76682 3.3641C2.80205 2.49762 2.83842 1.60159 2.70189 0.719039C2.68941 0.580208 2.64773 0.44549 2.57958 0.323384C2.53891 0.275897 2.48731 0.238752 2.42901 0.215128C2.3707 0.191504 2.30746 0.182088 2.24468 0.187656C2.11689 0.200299 2.03161 0.376196 2.0159 0.411361C1.99446 0.469587 1.98742 0.532007 1.99542 0.59345C1.99661 0.614298 1.99784 0.635334 1.99716 0.655345C1.9868 0.933761 1.97664 1.2122 1.96673 1.49072C1.93973 2.24233 1.91181 3.01955 1.87785 3.78347C1.86936 3.96766 1.84496 4.15183 1.81881 4.34608C1.811 4.40352 1.80331 4.46138 1.79583 4.52015C1.25785 4.30925 0.963074 3.92159 0.896336 3.33818Z" fill="#1E1E1E"/>
</g>
<defs>
<clipPath id="clip0_703_3716">
<rect width="9.76451" height="19.9268" fill="white"/>
</clipPath>
</defs>
</svg>
