<svg width="41" height="41" viewBox="0 0 41 41" fill="none" xmlns="http://www.w3.org/2000/svg">
<g clip-path="url(#clip0_703_3682)">
<path d="M38.9999 19.4723C39.007 22.1853 38.3731 24.8617 37.1499 27.2834C35.6996 30.1853 33.47 32.6261 30.7108 34.3324C27.9517 36.0387 24.7719 36.9432 21.5277 36.9444C18.8147 36.9515 16.1383 36.3176 13.7166 35.0945L2 39L5.90555 27.2834C4.68235 24.8617 4.04848 22.1853 4.05555 19.4723C4.05681 16.2281 4.96125 13.0483 6.66758 10.2892C8.37391 7.53001 10.8147 5.30039 13.7166 3.85006C16.1383 2.62686 18.8147 1.99298 21.5277 2.00006H22.5555C26.84 2.23643 30.8868 4.04484 33.921 7.07904C36.9552 10.1132 38.7636 14.16 38.9999 18.4445V19.4723Z" stroke="#1E1E1E" stroke-width="4.1111" stroke-linecap="round" stroke-linejoin="round"/>
</g>
<defs>
<clipPath id="clip0_703_3682">
<rect width="41" height="41" fill="white"/>
</clipPath>
</defs>
</svg>
