<svg width="35" height="35" viewBox="0 0 35 35" fill="none" xmlns="http://www.w3.org/2000/svg">
<path fill-rule="evenodd" clip-rule="evenodd" d="M27.7085 5.83329H26.2501V2.91663H23.3335V5.83329H11.6668V2.91663H8.75012V5.83329H7.29179C5.67304 5.83329 4.37512 7.14579 4.37512 8.74996V29.1666C4.37512 30.7708 5.67304 32.0833 7.29179 32.0833H27.7085C29.3126 32.0833 30.6251 30.7708 30.6251 29.1666V8.74996C30.6251 7.14579 29.3126 5.83329 27.7085 5.83329ZM27.7085 29.1666H7.29179V13.125H27.7085V29.1666ZM9.47929 18.9583C9.47929 16.9458 11.1126 15.3125 13.1251 15.3125C15.1376 15.3125 16.771 16.9458 16.771 18.9583C16.771 20.9708 15.1376 22.6041 13.1251 22.6041C11.1126 22.6041 9.47929 20.9708 9.47929 18.9583Z" fill="black"/>
</svg>
