<svg width="24" height="21" viewBox="0 0 24 21" fill="none" xmlns="http://www.w3.org/2000/svg">
<path d="M21.3036 2.67974C20.766 2.14721 20.1278 1.72477 19.4253 1.43656C18.7228 1.14834 17.9699 1 17.2095 1C16.4491 1 15.6961 1.14834 14.9936 1.43656C14.2912 1.72477 13.6529 2.14721 13.1153 2.67974L11.9997 3.7844L10.8841 2.67974C9.79827 1.60458 8.32556 1.00056 6.78997 1.00056C5.25437 1.00056 3.78167 1.60458 2.69584 2.67974C1.61001 3.7549 1 5.21313 1 6.73364C1 8.25414 1.61001 9.71238 2.69584 10.7875L3.81147 11.8922L11.9997 20L20.188 11.8922L21.3036 10.7875C21.8414 10.2553 22.268 9.62328 22.5591 8.9277C22.8502 8.23212 23 7.48657 23 6.73364C23 5.98071 22.8502 5.23516 22.5591 4.53958C22.268 3.84399 21.8414 3.21201 21.3036 2.67974Z" stroke="#49454F" stroke-width="2" stroke-linecap="round" stroke-linejoin="round"/>
</svg>
